<?xml version="1.0" encoding="UTF-8" standalone="no"?>
<svg
   viewBox="0 0 97.886345 62.330929"
   version="1.1"
   id="svg18"
   xmlns="http://www.w3.org/2000/svg"
   xmlns:svg="http://www.w3.org/2000/svg">
  <defs
     id="defs22" />
  <path
     d="m 33.017343,2.0035583 0.952,0.004 c 5.079,0.07 9.21,1.267 13.647,3.782 1.52,0.568 2.951,-0.216 4.392,-0.76 6.08,-2.18 12.644,-2.483 18.777,-0.298 l 0.526,0.176 c 4.22,1.421 7.702,3.84 10.835,6.9679997 l 0.765,0.681 0.556,0.642 c -0.08,1.003 -0.664,1.735 -1.214,2.55 l -0.576,0.858 -0.604,0.891 a 730.726,731.71 0 0 1 -2.097,3.11 c -0.962,-0.444 -1.39,-0.892 -2.015,-1.754 -2.874,-3.69 -7.352,-6.157 -11.951,-6.895 -5.869,-0.584 -11.189,0.649 -15.894,4.297 a 35.28,35.327 0 0 0 -1.055,0.911 l 0.203,0.477 c 1.851,4.464 1.851,4.464 1.382,5.873 l -0.367,-0.657 -0.492,-0.864 -0.483,-0.856 a 8.686,8.686 0 0 0 -1.564,-1.856 c -1.408,0.47 -1.955,1.922 -2.642,3.175 -2.28,4.936 -2.569,10.189 -0.746,15.31 0.92,2.396 2.14,4.456 3.85,6.37 l 0.368,0.412 c 0.354,0.372 0.354,0.372 1.02,0.927 1.948,0 3.401,-1.802 4.772,-3.092 3.867,-4.005 6.903,-10.061 6.879,-15.707 l -10e-4,-0.528 -0.008,-1.658 -0.004,-1.129 a 938.82,938.82 0 0 0 -0.013,-2.757 c 0.529,0.265 0.529,0.265 0.793,0.873 l 0.264,0.797 0.264,0.775 c 0.712,2.681 0.896,5.304 0.892,8.072 v 0.53 c -0.02,4.457 -1.078,7.989 -3.005,11.972 l -0.388,0.82 c -0.82,1.621 -1.832,2.894 -3.086,4.208 -0.49,0.528 -0.49,0.528 -0.754,1.057 5.84,1.51 11.39,1.165 16.665,-1.884 4.329,-2.78 7.222,-6.662 8.701,-11.61 a 37.67,37.72 0 0 0 0.433,-2.756 c 0.096,-0.683 0.096,-0.683 0.36,-1.212 l -0.521,0.101 c -0.779,0.15 -1.557,0.298 -2.336,0.445 l -0.82,0.16 -0.787,0.147 -0.726,0.138 c -0.623,0.067 -0.623,0.067 -1.416,-0.198 5.53,-8.17 5.53,-8.17 7.711,-11.347 a 246.966,247.299 0 0 0 1.464,-2.158 l 0.335,-0.497 c 0.292,-0.432 0.582,-0.864 0.872,-1.297 l 0.451,-0.576 h 0.529 a 25.13,25.165 0 0 1 0.974,1.588 l 0.642,1.096 0.363,0.617 c 0.759,1.271 1.546,2.523 2.331,3.777 l 0.511,0.818 c 0.82,1.31 1.642,2.617 2.47,3.921 l 0.445,0.7 c 0.275,0.432 0.55,0.864 0.827,1.295 l 0.37,0.58 0.321,0.504 c 0.258,0.45 0.258,0.45 0.522,1.244 -2.161,-0.144 -4.232,-0.574 -6.341,-1.058 l -0.011,0.7 c -0.308,7.934 -4.181,14.403 -9.865,19.739 -6.157,5.287 -13.71,6.709 -21.567,6.284 -3.257,-0.374 -6.487,-1.544 -9.314,-3.175 -0.693,-0.358 -1.076,-0.55 -1.854,-0.463 -0.615,0.206 -1.19,0.458 -1.78,0.727 -5.901,2.073 -12.204,1.91 -17.885,-0.694 -6.013,-2.915 -10.223,-7.586 -12.5,-13.858 a 33.96,33.96 0 0 1 -0.793,-2.91 c 0.652,0.592 1.014,1.173 1.42,1.951 2.665,4.519 7.358,7.476 12.32,8.847 a 20.2,20.2 0 0 0 10.338,-0.513 c 0.76,-0.231 0.76,-0.231 1.552,-0.231 -0.932,-1.651 -0.932,-1.651 -1.424,-2.443 -4.071,-6.565 -5.482,-14.003 -3.752,-21.56 0.961,-3.722 2.539,-7.35 4.912,-10.393 -3.985,-1.985 -8.855,-2.32 -13.096,-0.897 -6.056,2.453 -10.258,6.223 -12.881,12.274 -2.195,6.066 -1.736,12.79 0.936,18.62 a 83.179,83.29 0 0 0 0.732,1.488 l 0.419,0.849 c 1.198,2.233 2.819,3.992 4.601,5.766 l 0.553,0.554 c 3.42,3.193 7.86,4.947 12.394,5.796 l 0.72,0.151 c 1.204,0.159 2.393,0.142 3.607,0.13 l 0.742,-0.003 c 0.6,-0.003 1.2,-0.007 1.801,-0.014 -0.821,0.823 -1.802,0.797 -2.923,0.96 l -0.719,0.104 c -8.155,1.106 -15.925,-0.901 -22.516,-5.826 -6.1610002,-4.78 -10.5950002,-11.461 -11.6260002,-19.314 a 54.05,54.05 0 0 1 -0.083,-3.655 l 0.004,-0.995 c 0.03,-2.263 0.159,-4.3 0.87,-6.463 l 0.16,-0.498 c 2.299,-7.083 6.896,-12.569 13.5300002,-16.0289997 5.29,-2.532 11.662,-3.263 17.324,-1.55 2.79,1.02 5.29,2.144 7.708,3.895 0.595,0.389 1.012,0.5749997 1.706,0.6879997 l 0.792,-1.0579997 -0.46,-0.213 c -0.622,-0.33 -1.13,-0.713 -1.687,-1.143 -4.677,-3.282 -10.44,-4.641 -16.084,-4.73 2.201,-1.19 4.705,-1.153 7.15,-1.14 z"
     fill="#5897be"
     id="path2" />
  <path
     d="m 85.581343,17.166558 h 0.529 a 25.06,25.093 0 0 1 0.974,1.588 c 0.213,0.366 0.427,0.73 0.642,1.096 l 0.363,0.617 c 0.758,1.27 1.546,2.523 2.33,3.777 l 0.512,0.818 c 0.82,1.31 1.642,2.617 2.47,3.92 l 0.445,0.7 c 0.275,0.433 0.55,0.864 0.827,1.296 l 0.369,0.58 0.322,0.503 c 0.258,0.451 0.258,0.451 0.522,1.245 -2.161,-0.145 -4.232,-0.574 -6.341,-1.058 l -0.012,0.7 c -0.307,7.934 -4.18,14.403 -9.864,19.739 -6.157,5.288 -13.71,6.709 -21.567,6.284 -1.555,-0.179 -3.01,-0.568 -4.492,-1.059 a 1200.289,1201.904 0 0 1 -0.895,-0.29 c -3.371,-1.201 -6.465,-2.89 -9.146,-5.266 l -0.711,-0.616 c -1.098,-0.967 -2.125,-1.898 -2.988,-3.088 v -0.53 l 0.6,-0.272 c 2.16,-1.024 4.385,-2.188 5.741,-4.225 1.134,0.437 1.818,1.253 2.643,2.116 4.62,-2.146 7.91,-7.056 9.776,-11.641 0.89,-2.434 1.622,-4.813 1.611,-7.422 v -0.528 c -0.002,-0.553 -0.006,-1.105 -0.009,-1.658 l -0.003,-1.129 c -0.003,-0.919 -0.007,-1.838 -0.013,-2.757 0.529,0.265 0.529,0.265 0.793,0.873 l 0.264,0.797 0.265,0.774 c 0.712,2.682 0.895,5.305 0.891,8.073 v 0.53 c -0.02,4.457 -1.078,7.989 -3.005,11.972 l -0.388,0.82 c -0.82,1.621 -1.832,2.894 -3.086,4.208 -0.49,0.528 -0.49,0.528 -0.754,1.057 5.84,1.51 11.39,1.165 16.665,-1.884 4.329,-2.78 7.222,-6.662 8.7,-11.61 a 37.822,37.872 0 0 0 0.434,-2.756 c 0.095,-0.683 0.095,-0.683 0.36,-1.212 l -0.521,0.101 a 542.496,543.227 0 0 1 -2.336,0.444 l -0.82,0.16 -0.788,0.147 -0.725,0.139 c -0.623,0.067 -0.623,0.067 -1.416,-0.198 5.53,-8.17 5.53,-8.17 7.711,-11.348 a 248.872,249.207 0 0 0 1.464,-2.158 l 0.336,-0.496 0.871,-1.297 z"
     fill="#529cb5"
     id="path4" />
  <path
     d="m 39.606343,13.991558 c 2.465,0.933 4.703,2.413 6.605,4.234 v 0.529 h 0.529 l 0.214,-0.513 c 0.314,-0.545 0.314,-0.545 1.107,-0.81 2.143,4.411 2.143,4.411 1.585,6.085 l -0.367,-0.657 -0.491,-0.864 -0.483,-0.856 a 8.682,8.682 0 0 0 -1.565,-1.856 c -1.408,0.47 -1.954,1.921 -2.642,3.175 -2.277,4.929 -2.57,10.185 -0.755,15.302 0.818,2.071 1.986,3.965 3.133,5.865 -0.981,1.357 -2.06,2.242 -3.452,3.142 l -0.481,0.315 c -0.882,0.554 -1.635,0.919 -2.673,1.04 1.755,2.449 3.901,4.519 6.447,6.138 l 0.687,0.477 v 0.53 c -6.32,2.501 -12.818,3.101 -19.163,0.36 -6.105,-2.799 -10.467,-7.357 -12.892,-13.62 a 27.287,27.287 0 0 1 -0.973,-3.41 c 0.652,0.593 1.014,1.174 1.42,1.952 2.665,4.519 7.358,7.477 12.32,8.847 3.483,0.728 6.958,0.555 10.338,-0.513 0.759,-0.231 0.759,-0.231 1.552,-0.231 -0.932,-1.65 -0.932,-1.65 -1.425,-2.443 -4.07,-6.565 -5.48,-14.003 -3.752,-21.56 0.994,-3.846 2.627,-7.589 5.177,-10.658 z"
     fill="#5fa9b9"
     id="path6" />
  <path
     d="m 33.264343,11.875558 v 0.264 l -0.795,0.079 c -6.227,0.664 -11.632,2.829 -15.807,7.638 -3.926,5.143 -5.193,11.191 -4.459,17.56 0.452,2.963 1.49,5.66 2.83,8.325 l 0.419,0.849 c 1.198,2.233 2.82,3.992 4.6,5.766 l 0.554,0.554 c 3.42,3.193 7.86,4.947 12.394,5.796 l 0.72,0.15 c 1.204,0.16 2.393,0.142 3.607,0.131 l 0.742,-0.003 c 0.6,-0.003 1.2,-0.007 1.8,-0.013 -0.82,0.822 -1.8,0.797 -2.922,0.96 l -0.719,0.104 c -8.155,1.105 -15.924,-0.902 -22.517,-5.826 -5.1220002,-3.975 -8.2800002,-8.44 -9.6920002,-14.838 -0.731,-6.687 1.053,-12.984 5.198,-18.296 3.1390002,-3.88 7.4170002,-6.638 12.1570002,-8.141 l 0.521,-0.168 c 3.729,-1.14 7.506,-1.003 11.37,-0.89 z"
     fill="#347eae"
     id="path8" />
  <path
     d="m 33.017343,2.0035583 0.952,0.004 c 5.079,0.07 9.21,1.267 13.647,3.782 1.52,0.568 2.951,-0.216 4.392,-0.76 6.08,-2.18 12.644,-2.483 18.777,-0.298 l 0.526,0.176 c 4.22,1.421 7.702,3.84 10.835,6.9679997 l 0.765,0.681 0.556,0.642 c -0.08,1.003 -0.664,1.735 -1.214,2.55 l -0.576,0.858 -0.604,0.891 a 730.726,731.71 0 0 1 -2.097,3.11 c -0.962,-0.444 -1.39,-0.892 -2.015,-1.754 -2.874,-3.69 -7.352,-6.157 -11.951,-6.895 -2.995,-0.298 -6.296,-0.342 -9.158,0.684 -0.657,0.026 -0.657,0.026 -1.31,-0.549 a 43.616,43.674 0 0 1 -0.685,-0.83 c -1.02,-1.186 -2.065,-2.2879997 -3.253,-3.3069997 l -0.766,-0.667 c -0.72,-0.441 -0.72,-0.441 -1.36,-0.453 -0.917,0.372 -1.687,0.904 -2.481,1.484 l -0.479,0.34 a 180.504,180.747 0 0 0 -1.156,0.834 22.57,22.57 0 0 1 -2.428,-1.637 c -4.677,-3.268 -10.43,-4.626 -16.068,-4.713 2.202,-1.192 4.706,-1.153 7.15,-1.141 z"
     fill="#65b3b7"
     id="path10" />
  <path
     d="m 85.581343,17.166558 h 0.529 a 25.06,25.093 0 0 1 0.974,1.588 c 0.213,0.366 0.427,0.73 0.642,1.096 l 0.363,0.617 c 0.758,1.27 1.546,2.523 2.33,3.777 l 0.512,0.818 c 0.82,1.31 1.642,2.617 2.47,3.92 l 0.445,0.7 c 0.275,0.433 0.55,0.864 0.827,1.296 l 0.369,0.58 0.322,0.503 c 0.258,0.451 0.258,0.451 0.522,1.245 -2.161,-0.145 -4.232,-0.574 -6.341,-1.058 l -0.012,0.7 c -0.307,7.934 -4.18,14.403 -9.864,19.739 -5.037,4.325 -11.408,6.33 -17.934,6.333 l -1.034,0.01 -0.985,10e-4 -0.9,0.003 c -0.714,-0.064 -0.714,-0.064 -1.243,-0.593 h 1.85 v -0.53 l 0.757,-0.069 c 7.773,-0.792 13.92,-4.093 19.06,-9.984 0.715,-0.93 1.294,-1.88 1.85,-2.91 0.176,-0.308 0.353,-0.616 0.531,-0.923 3.007,-5.301 4.017,-10.994 3.986,-17.04 v -0.859 l -0.009,-2.676 -0.003,-1.83 c -0.003,-1.485 -0.007,-2.97 -0.013,-4.454 z"
     fill="#3381b0"
     id="path12" />
  <path
     d="m 13.976343,38.598558 c 0.652,0.592 1.014,1.173 1.42,1.951 2.665,4.519 7.358,7.477 12.32,8.847 3.483,0.728 6.958,0.555 10.338,-0.513 0.759,-0.231 0.759,-0.231 1.552,-0.231 l 0.264,-0.53 0.342,0.477 a 23.258,23.258 0 0 0 6.105,5.66 l 0.687,0.478 v 0.53 c -6.32,2.501 -12.818,3.101 -19.163,0.36 -6.105,-2.799 -10.467,-7.357 -12.892,-13.62 a 27.287,27.287 0 0 1 -0.973,-3.41 z"
     fill="#68b3b7"
     id="path14" />
  <path
     d="m 48.939343,45.901558 c -0.665,-0.367 -1.252,-0.83 -1.981,-1.566 l -0.733,-0.737 0.411,-0.02 0.41,-0.02 0.364,-0.45 c 0.866,-1.071 2.058,-2.98 2.656,-4.255 a 25.94,25.94 0 0 0 2.267,-7.882 c 0.137,-1.094 0.118,-4.812 -0.031,-5.83 -0.249,-1.697 -0.847,-4.172 -1.458,-6.03 -0.438,-1.334 -1.213,-2.516 -1.738,-2.652 -0.189,-0.049 -0.172,-0.066 0.66,-0.693 1.082,-0.812 1.82,-1.274 2.955,-1.848 0.891,-0.451 1.984,-0.912 2.323,-0.98 0.151,-0.03 0.25,0.04 0.69,0.487 0.705,0.714 1.295,1.5 2.43,3.239 1.75,2.683 2.176,3.817 2.359,6.288 0.083,1.122 0.045,3.778 -0.073,5.154 -0.178,2.076 -0.568,3.675 -1.412,5.794 -1.795,4.506 -4.857,8.509 -8.937,11.687 -0.36,0.28 -0.69,0.509 -0.733,0.508 -0.043,0 -0.236,-0.088 -0.429,-0.194 z"
     opacity="0.56"
     fill="#5fa9b9"
     id="path16" />
</svg>
