<svg width="210mm" height="297mm" viewBox="0 0 210 297" xmlns="http://www.w3.org/2000/svg">
    <path
        d="M83.063 81.85l.952.004c5.079.07 9.21 1.267 13.647 3.782 1.52.568 2.951-.216 4.392-.76 6.08-2.18 12.644-2.483 18.777-.298l.526.176c4.22 1.421 7.702 3.84 10.835 6.968l.765.681.556.642c-.08 1.003-.664 1.735-1.214 2.55l-.576.858-.604.891a730.726 731.71 0 01-2.097 3.11c-.962-.444-1.39-.892-2.015-1.754-2.874-3.69-7.352-6.157-11.951-6.895-5.869-.584-11.189.649-15.894 4.297a35.28 35.327 0 00-1.055.911l.203.477c1.851 4.464 1.851 4.464 1.382 5.873l-.367-.657-.492-.864-.483-.856a8.686 8.686 0 00-1.564-1.856c-1.408.47-1.955 1.922-2.642 3.175-2.28 4.936-2.569 10.189-.746 15.31.92 2.396 2.14 4.456 3.85 6.37l.368.412c.354.372.354.372 1.02.927 1.948 0 3.401-1.802 4.772-3.092 3.867-4.005 6.903-10.061 6.879-15.707l-.001-.528-.008-1.658-.004-1.129a938.82 938.82 0 00-.013-2.757c.529.265.529.265.793.873l.264.797.264.775c.712 2.681.896 5.304.892 8.072v.53c-.02 4.457-1.078 7.989-3.005 11.972l-.388.82c-.82 1.621-1.832 2.894-3.086 4.208-.49.528-.49.528-.754 1.057 5.84 1.51 11.39 1.165 16.665-1.884 4.329-2.78 7.222-6.662 8.701-11.61a37.67 37.72 0 00.433-2.756c.096-.683.096-.683.36-1.212l-.521.101c-.779.15-1.557.298-2.336.445l-.82.16-.787.147-.726.138c-.623.067-.623.067-1.416-.198 5.53-8.17 5.53-8.17 7.711-11.347a246.966 247.299 0 001.464-2.158l.335-.497c.292-.432.582-.864.872-1.297l.451-.576h.529a25.13 25.165 0 01.974 1.588l.642 1.096.363.617c.759 1.271 1.546 2.523 2.331 3.777l.511.818c.82 1.31 1.642 2.617 2.47 3.921l.445.7c.275.432.55.864.827 1.295l.37.58.321.504c.258.45.258.45.522 1.244-2.161-.144-4.232-.574-6.341-1.058l-.011.7c-.308 7.934-4.181 14.403-9.865 19.739-6.157 5.287-13.71 6.709-21.567 6.284-3.257-.374-6.487-1.544-9.314-3.175-.693-.358-1.076-.55-1.854-.463-.615.206-1.19.458-1.78.727-5.901 2.073-12.204 1.91-17.885-.694-6.013-2.915-10.223-7.586-12.5-13.858a33.96 33.96 0 01-.793-2.91c.652.592 1.014 1.173 1.42 1.951 2.665 4.519 7.358 7.476 12.32 8.847a20.2 20.2 0 0010.338-.513c.76-.231.76-.231 1.552-.231-.932-1.651-.932-1.651-1.424-2.443-4.071-6.565-5.482-14.003-3.752-21.56.961-3.722 2.539-7.35 4.912-10.393-3.985-1.985-8.855-2.32-13.096-.897-6.056 2.453-10.258 6.223-12.881 12.274-2.195 6.066-1.736 12.79.936 18.62a83.179 83.29 0 00.732 1.488l.419.849c1.198 2.233 2.819 3.992 4.601 5.766l.553.554c3.42 3.193 7.86 4.947 12.394 5.796l.72.151c1.204.159 2.393.142 3.607.13l.742-.003c.6-.003 1.2-.007 1.801-.014-.821.823-1.802.797-2.923.96l-.719.104c-8.155 1.106-15.925-.901-22.516-5.826-6.161-4.78-10.595-11.461-11.626-19.314a54.05 54.05 0 01-.083-3.655l.004-.995c.03-2.263.159-4.3.87-6.463l.16-.498c2.299-7.083 6.896-12.569 13.53-16.029 5.29-2.532 11.662-3.263 17.324-1.55 2.79 1.02 5.29 2.144 7.708 3.895.595.389 1.012.575 1.706.688l.792-1.058-.46-.213c-.622-.33-1.13-.713-1.687-1.143-4.677-3.282-10.44-4.641-16.084-4.73 2.201-1.19 4.705-1.153 7.15-1.14z"
        fill="#5897be" />
    <path
        d="M135.627 97.013h.529a25.06 25.093 0 01.974 1.588c.213.366.427.73.642 1.096l.363.617c.758 1.27 1.546 2.523 2.33 3.777l.512.818c.82 1.31 1.642 2.617 2.47 3.92l.445.7c.275.433.55.864.827 1.296l.369.58.322.503c.258.451.258.451.522 1.245-2.161-.145-4.232-.574-6.341-1.058l-.012.7c-.307 7.934-4.18 14.403-9.864 19.739-6.157 5.288-13.71 6.709-21.567 6.284-1.555-.179-3.01-.568-4.492-1.059a1200.289 1201.904 0 01-.895-.29c-3.371-1.201-6.465-2.89-9.146-5.266l-.711-.616c-1.098-.967-2.125-1.898-2.988-3.088v-.53l.6-.272c2.16-1.024 4.385-2.188 5.741-4.225 1.134.437 1.818 1.253 2.643 2.116 4.62-2.146 7.91-7.056 9.776-11.641.89-2.434 1.622-4.813 1.611-7.422v-.528c-.002-.553-.006-1.105-.009-1.658l-.003-1.129c-.003-.919-.007-1.838-.013-2.757.529.265.529.265.793.873l.264.797.265.774c.712 2.682.895 5.305.891 8.073v.53c-.02 4.457-1.078 7.989-3.005 11.972l-.388.82c-.82 1.621-1.832 2.894-3.086 4.208-.49.528-.49.528-.754 1.057 5.84 1.51 11.39 1.165 16.665-1.884 4.329-2.78 7.222-6.662 8.7-11.61a37.822 37.872 0 00.434-2.756c.095-.683.095-.683.36-1.212l-.521.101a542.496 543.227 0 01-2.336.444l-.82.16-.788.147-.725.139c-.623.067-.623.067-1.416-.198 5.53-8.17 5.53-8.17 7.711-11.348a248.872 249.207 0 001.464-2.158l.336-.496.871-1.297z"
        fill="#529cb5" />
    <path
        d="M89.652 93.838c2.465.933 4.703 2.413 6.605 4.234v.529h.529l.214-.513c.314-.545.314-.545 1.107-.81 2.143 4.411 2.143 4.411 1.585 6.085l-.367-.657-.491-.864-.483-.856a8.682 8.682 0 00-1.565-1.856c-1.408.47-1.954 1.921-2.642 3.175-2.277 4.929-2.57 10.185-.755 15.302.818 2.071 1.986 3.965 3.133 5.865-.981 1.357-2.06 2.242-3.452 3.142l-.481.315c-.882.554-1.635.919-2.673 1.04 1.755 2.449 3.901 4.519 6.447 6.138l.687.477v.53c-6.32 2.501-12.818 3.101-19.163.36-6.105-2.799-10.467-7.357-12.892-13.62a27.287 27.287 0 01-.973-3.41c.652.593 1.014 1.174 1.42 1.952 2.665 4.519 7.358 7.477 12.32 8.847 3.483.728 6.958.555 10.338-.513.759-.231.759-.231 1.552-.231-.932-1.65-.932-1.65-1.425-2.443-4.07-6.565-5.48-14.003-3.752-21.56.994-3.846 2.627-7.589 5.177-10.658z"
        fill="#5fa9b9" />
    <path
        d="M83.31 91.722v.264l-.795.079c-6.227.664-11.632 2.829-15.807 7.638-3.926 5.143-5.193 11.191-4.459 17.56.452 2.963 1.49 5.66 2.83 8.325l.419.849c1.198 2.233 2.82 3.992 4.6 5.766l.554.554c3.42 3.193 7.86 4.947 12.394 5.796l.72.15c1.204.16 2.393.142 3.607.131l.742-.003c.6-.003 1.2-.007 1.8-.013-.82.822-1.8.797-2.922.96l-.719.104c-8.155 1.105-15.924-.902-22.517-5.826-5.122-3.975-8.28-8.44-9.692-14.838-.731-6.687 1.053-12.984 5.198-18.296 3.139-3.88 7.417-6.638 12.157-8.141l.521-.168c3.729-1.14 7.506-1.003 11.37-.89z"
        fill="#347eae" />
    <path
        d="M83.063 81.85l.952.004c5.079.07 9.21 1.267 13.647 3.782 1.52.568 2.951-.216 4.392-.76 6.08-2.18 12.644-2.483 18.777-.298l.526.176c4.22 1.421 7.702 3.84 10.835 6.968l.765.681.556.642c-.08 1.003-.664 1.735-1.214 2.55l-.576.858-.604.891a730.726 731.71 0 01-2.097 3.11c-.962-.444-1.39-.892-2.015-1.754-2.874-3.69-7.352-6.157-11.951-6.895-2.995-.298-6.296-.342-9.158.684-.657.026-.657.026-1.31-.549a43.616 43.674 0 01-.685-.83c-1.02-1.186-2.065-2.288-3.253-3.307l-.766-.667c-.72-.441-.72-.441-1.36-.453-.917.372-1.687.904-2.481 1.484l-.479.34a180.504 180.747 0 00-1.156.834 22.57 22.57 0 01-2.428-1.637c-4.677-3.268-10.43-4.626-16.068-4.713 2.202-1.192 4.706-1.153 7.15-1.141z"
        fill="#65b3b7" />
    <path
        d="M135.627 97.013h.529a25.06 25.093 0 01.974 1.588c.213.366.427.73.642 1.096l.363.617c.758 1.27 1.546 2.523 2.33 3.777l.512.818c.82 1.31 1.642 2.617 2.47 3.92l.445.7c.275.433.55.864.827 1.296l.369.58.322.503c.258.451.258.451.522 1.245-2.161-.145-4.232-.574-6.341-1.058l-.012.7c-.307 7.934-4.18 14.403-9.864 19.739-5.037 4.325-11.408 6.33-17.934 6.333l-1.034.01-.985.001-.9.003c-.714-.064-.714-.064-1.243-.593h1.85v-.53l.757-.069c7.773-.792 13.92-4.093 19.06-9.984.715-.93 1.294-1.88 1.85-2.91.176-.308.353-.616.531-.923 3.007-5.301 4.017-10.994 3.986-17.04v-.859l-.009-2.676-.003-1.83c-.003-1.485-.007-2.97-.013-4.454z"
        fill="#3381b0" />
    <path
        d="M64.022 118.445c.652.592 1.014 1.173 1.42 1.951 2.665 4.519 7.358 7.477 12.32 8.847 3.483.728 6.958.555 10.338-.513.759-.231.759-.231 1.552-.231l.264-.53.342.477a23.258 23.258 0 006.105 5.66l.687.478v.53c-6.32 2.501-12.818 3.101-19.163.36-6.105-2.799-10.467-7.357-12.892-13.62a27.287 27.287 0 01-.973-3.41z"
        fill="#68b3b7" />
    <path
        d="M98.985 125.748c-.665-.367-1.252-.83-1.981-1.566l-.733-.737.411-.02.41-.02.364-.45c.866-1.071 2.058-2.98 2.656-4.255a25.94 25.94 0 002.267-7.882c.137-1.094.118-4.812-.031-5.83-.249-1.697-.847-4.172-1.458-6.03-.438-1.334-1.213-2.516-1.738-2.652-.189-.049-.172-.066.66-.693 1.082-.812 1.82-1.274 2.955-1.848.891-.451 1.984-.912 2.323-.98.151-.03.25.04.69.487.705.714 1.295 1.5 2.43 3.239 1.75 2.683 2.176 3.817 2.359 6.288.083 1.122.045 3.778-.073 5.154-.178 2.076-.568 3.675-1.412 5.794-1.795 4.506-4.857 8.509-8.937 11.687-.36.28-.69.509-.733.508-.043 0-.236-.088-.429-.194z"
        opacity=".56" fill="#5fa9b9" />
</svg>