<?xml version="1.0" encoding="UTF-8" standalone="no"?>
<!-- Created with Inkscape (http://www.inkscape.org/) -->

<svg
   width="210mm"
   height="297mm"
   viewBox="0 0 210 297"
   version="1.1"
   id="svg3708"
   inkscape:version="1.2.2 (b0a8486541, 2022-12-01)"
   sodipodi:docname="ogf.svg"
   xmlns:inkscape="http://www.inkscape.org/namespaces/inkscape"
   xmlns:sodipodi="http://sodipodi.sourceforge.net/DTD/sodipodi-0.dtd"
   xmlns="http://www.w3.org/2000/svg"
   xmlns:svg="http://www.w3.org/2000/svg">
  <sodipodi:namedview
     id="namedview3710"
     pagecolor="#ffffff"
     bordercolor="#000000"
     borderopacity="0.25"
     inkscape:showpageshadow="2"
     inkscape:pageopacity="0.0"
     inkscape:pagecheckerboard="0"
     inkscape:deskcolor="#d1d1d1"
     inkscape:document-units="mm"
     showgrid="false"
     inkscape:zoom="0.89174383"
     inkscape:cx="396.97499"
     inkscape:cy="562.38124"
     inkscape:window-width="1920"
     inkscape:window-height="1043"
     inkscape:window-x="4480"
     inkscape:window-y="197"
     inkscape:window-maximized="1"
     inkscape:current-layer="layer1" />
  <defs
     id="defs3705" />
  <g
     inkscape:label="Layer 1"
     inkscape:groupmode="layer"
     id="layer1">
    <path
       d="m 83.062598,81.849689 c 0.31443,0.0016 0.62887,0.0026 0.95281,0.0045 5.07846,0.06959 9.20965,1.266822 13.64683,3.781419 1.51932,0.56885 2.950902,-0.21511 4.391472,-0.75988 6.08067,-2.179637 12.64435,-2.483117 18.77681,-0.29766 l 0.52634,0.17595 c 4.21972,1.42134 7.70198,3.84043 10.83545,6.9678 l 0.76468,0.681299 0.55646,0.64162 c -0.0801,1.00356 -0.66479,1.7354 -1.21465,2.55058 -0.19025,0.28311 -0.37996,0.56621 -0.57549,0.85804 l -0.60429,0.89086 a 730.72621,731.7097 0 0 1 -2.09744,3.108853 c -0.96179,-0.44265 -1.38878,-0.891123 -2.015,-1.752603 -2.87374,-3.69014 -7.35108,-6.15791 -11.95102,-6.89583 -5.86849,-0.583939 -11.18846,0.64902 -15.893822,4.29736 a 35.279155,35.326637 0 0 0 -1.0548,0.91149 c 0.0669,0.15742 0.13396,0.31459 0.20319,0.47625 1.851182,4.464583 1.851182,4.464583 1.38191,5.873753 l -0.36727,-0.65723 -0.49147,-0.86413 -0.48327,-0.85566 c -0.46451,-0.73025 -0.9285,-1.275563 -1.56423,-1.856323 -1.4078,0.4699 -1.95449,1.921413 -2.64228,3.175003 -2.28028,4.93634 -2.56829,10.18884 -0.74565,15.31038 0.9203,2.39501 2.13946,4.45559 3.85033,6.36905 l 0.36807,0.41275 c 0.35407,0.37174 0.35407,0.37174 1.01913,0.92657 1.948682,0 3.401662,-1.80207 4.772482,-3.09218 3.86671,-4.00473 6.90321,-10.06078 6.87916,-15.70646 l -0.001,-0.52837 c -0.002,-0.55245 -0.005,-1.10517 -0.008,-1.65762 l -0.004,-1.12924 c -0.003,-0.9189 -0.007,-1.8378 -0.0127,-2.75696 0.52846,0.26458 0.52846,0.26458 0.79269,0.87313 l 0.26422,0.79719 0.26423,0.77417 c 0.71183,2.68181 0.89573,5.30463 0.89151,8.07243 0,0.17463 0,0.34925 -5.3e-4,0.52917 -0.0196,4.45744 -1.07726,7.98962 -3.0048,11.9724 l -0.38815,0.81968 c -0.82016,1.62216 -1.83189,2.8948 -3.08512,4.20846 -0.48988,0.52837 -0.48988,0.52837 -0.75411,1.05754 5.83891,1.50892 11.39006,1.16522 16.66484,-1.88384 4.32858,-2.77971 7.22214,-6.66247 8.70102,-11.60991 a 37.669888,37.720587 0 0 0 0.43333,-2.75617 c 0.0951,-0.68342 0.0951,-0.68342 0.35936,-1.21258 l -0.52105,0.1016 c -0.77842,0.15028 -1.5571,0.29739 -2.33578,0.4445 l -0.82043,0.15981 -0.78687,0.1471 -0.7253,0.13838 c -0.62358,0.0669 -0.62358,0.0669 -1.41626,-0.19764 5.53029,-8.16981 5.53029,-8.16981 7.71096,-11.34798 a 246.96624,247.29863 0 0 0 1.46382,-2.157943 l 0.33557,-0.49689 c 0.29171,-0.43127 0.58183,-0.86387 0.87195,-1.29646 l 0.45104,-0.57573 h 0.52845 a 25.130697,25.164521 0 0 1 0.97421,1.5875 c 0.21349,0.36565 0.42752,0.73078 0.64207,1.09564 l 0.36305,0.617533 c 0.75833,1.2708 1.54573,2.52307 2.33075,3.77693 l 0.51128,0.81836 c 0.81911,1.30969 1.64192,2.61699 2.47053,3.92059 l 0.44417,0.6993 c 0.2748,0.43233 0.55039,0.86439 0.82703,1.29566 l 0.36913,0.5805 0.32183,0.50324 c 0.25815,0.45058 0.25815,0.45058 0.52238,1.24433 -2.16139,-0.14446 -4.2324,-0.57415 -6.34147,-1.05833 -0.004,0.23124 -0.008,0.46249 -0.0111,0.70114 -0.30729,7.93301 -4.18087,14.40233 -9.86441,19.73792 -6.1573,5.2877 -13.70945,6.70877 -21.56758,6.28385 -3.25635,-0.37385 -6.4868,-1.54384 -9.314032,-3.175 -0.69307,-0.35798 -1.07541,-0.54901 -1.85382,-0.46302 -0.61486,0.20664 -1.19035,0.458 -1.77958,0.72761 -5.90179,2.07248 -12.20468,1.91055 -17.88505,-0.69427 -6.01329,-2.91465 -10.22376,-7.58587 -12.50087,-13.85782 -0.30519,-0.96308 -0.57391,-1.92458 -0.79269,-2.91041 0.65185,0.59266 1.01464,1.17316 1.41996,1.9513 2.66553,4.51855 7.35822,7.47633 12.31988,8.84714 3.48332,0.7276 6.95897,0.55483 10.3387,-0.51277 0.75887,-0.23151 0.75887,-0.23151 1.55155,-0.23151 -0.93193,-1.651 -0.93193,-1.651 -1.42419,-2.44316 -4.07095,-6.56484 -5.4814,-14.00281 -3.75203,-21.55931 0.96179,-3.72242 2.53923,-7.350123 4.91199,-10.393623 -3.98429,-1.98491 -8.85506,-2.31908 -13.09592,-0.89694 -6.05609,2.45322 -10.25731,6.223 -12.8811,12.274023 -2.19467,6.06584 -1.73597,12.79075 0.93643,18.62085 a 83.178882,83.290832 0 0 0 0.73191,1.48748 c 0.0687,0.14023 0.0687,0.14023 0.4188,0.84879 1.19801,2.23255 2.81931,3.99229 4.60126,5.76606 l 0.55303,0.55404 c 3.42043,3.19246 7.85998,4.94665 12.39413,5.79596 0.23727,0.0503 0.47455,0.0998 0.71923,0.15108 1.20487,0.15848 2.3939,0.14181 3.60723,0.13044 l 0.74248,-0.004 c 0.60006,-0.003 1.20039,-0.007 1.80098,-0.0132 -0.82122,0.82233 -1.80177,0.79693 -2.92315,0.95938 l -0.71844,0.10451 c -8.15512,1.10543 -15.925,-0.90143 -22.51696,-5.82612 -6.16099,-4.78023 -10.59447,-11.46149 -11.62601,-19.31458 -0.0766,-1.2192 -0.0885,-2.43311 -0.0827,-3.65443 l 0.004,-0.9951 c 0.0301,-2.26298 0.15906,-4.3008 0.87089,-6.46297 l 0.15907,-0.49848 c 2.29878,-7.082903 6.89634,-12.568242 13.5311,-16.028462 5.28851,-2.53259 11.66116,-3.26363 17.32276,-1.55046 2.79051,1.01997 5.29117,2.14392 7.70858,3.89546 0.59452,0.38868 1.01226,0.57494 1.70533,0.68792 l 0.79268,-1.05833 -0.46054,-0.21273 c -0.62147,-0.32914 -1.12984,-0.71331 -1.68657,-1.143 -4.6771,-3.28189 -10.43937,-4.641317 -16.0846,-4.729687 2.20181,-1.191151 4.7059,-1.153051 7.15053,-1.14088 z"
       fill="#5897be"
       id="path309"
       style="stroke-width:0.264406" />
    <path
       d="m 135.62728,97.013487 h 0.52845 a 25.059356,25.093083 0 0 1 0.97447,1.5875 c 0.21323,0.36565 0.42726,0.73078 0.64181,1.09564 l 0.36305,0.617533 c 0.75807,1.27053 1.54573,2.52281 2.33075,3.77693 l 0.51128,0.81836 c 0.81937,1.30942 1.64192,2.61673 2.4708,3.92033 l 0.4439,0.69956 c 0.2748,0.43233 0.55039,0.86413 0.82677,1.2954 l 0.36939,0.58076 0.32183,0.50297 c 0.25815,0.45085 0.25815,0.45085 0.52238,1.2446 -2.16165,-0.14473 -4.2324,-0.57441 -6.34147,-1.05833 l -0.0114,0.70061 c -0.3073,7.93327 -4.18087,14.4026 -9.86415,19.73845 -6.15703,5.2877 -13.70945,6.70877 -21.56758,6.28385 -1.55498,-0.17859 -3.00877,-0.56753 -4.49188,-1.05833 a 1200.2887,1201.9042 0 0 1 -0.89494,-0.29051 c -3.370762,-1.20095 -6.464602,-2.88925 -9.145722,-5.26574 l -0.71104,-0.61595 c -1.09839,-0.96705 -2.12466,-1.89786 -2.98815,-3.08822 v -0.52916 l 0.60059,-0.27279 c 2.16006,-1.0242 4.38433,-2.18784 5.74088,-4.22513 1.13406,0.43683 1.81762,1.2536 2.64227,2.11667 4.620292,-2.14657 7.910452,-7.05618 9.776432,-11.64167 0.88913,-2.4339 1.62236,-4.81251 1.61126,-7.42183 l -0.001,-0.5281 c -0.001,-0.55272 -0.005,-1.10517 -0.008,-1.65762 l -0.003,-1.12924 c -0.003,-0.9189 -0.007,-1.83806 -0.0129,-2.75696 0.52845,0.26458 0.52845,0.26458 0.79268,0.87339 l 0.26423,0.79666 0.26423,0.77417 c 0.71209,2.68182 0.89573,5.30463 0.89177,8.07297 l -8e-4,0.52916 c -0.0193,4.45718 -1.07725,7.9891 -3.00479,11.9724 l -0.38816,0.81968 c -0.82016,1.6219 -1.83189,2.89481 -3.08512,4.20846 -0.49014,0.52811 -0.49014,0.52811 -0.75437,1.05728 5.83917,1.50892 11.39006,1.16522 16.66484,-1.8841 4.32885,-2.77998 7.2224,-6.66247 8.70102,-11.60965 a 37.821555,37.872458 0 0 0 0.4336,-2.75643 c 0.0949,-0.68316 0.0949,-0.68316 0.35909,-1.21232 l -0.52105,0.10133 a 542.49647,543.22662 0 0 1 -2.33578,0.44424 l -0.82016,0.15981 -0.78714,0.14737 -0.7253,0.13838 c -0.62358,0.0672 -0.62358,0.0672 -1.41626,-0.19738 5.53029,-8.16981 5.53029,-8.16981 7.71122,-11.34825 a 248.87185,249.20681 0 0 0 1.46356,-2.157943 l 0.33583,-0.49662 c 0.29171,-0.43154 0.58183,-0.86387 0.87169,-1.29646 z"
       fill="#529cb5"
       id="path311"
       style="stroke-width:0.264406" />
    <path
       d="m 89.651648,93.838487 c 2.46551,0.93265 4.70299,2.41273 6.6057,4.23333 v 0.52917 h 0.52845 l 0.21456,-0.51276 c 0.3139,-0.54558 0.3139,-0.54558 1.10658,-0.81016 2.142622,4.411133 2.142622,4.411133 1.58537,6.085423 l -0.36754,-0.65723 -0.4912,-0.86413 -0.48301,-0.85566 c -0.46478,-0.73025 -0.92876,-1.275823 -1.56476,-1.856323 -1.40754,0.4699 -1.95423,1.921143 -2.64228,3.175003 -2.27659,4.92866 -2.56935,10.18487 -0.75463,15.30218 0.81805,2.07063 1.9862,3.96425 3.13269,5.86449 -0.98082,1.35758 -2.05993,2.24208 -3.45135,3.14193 l -0.48169,0.31512 c -0.88173,0.55377 -1.63478,0.91916 -2.67266,1.04087 1.75526,2.44792 3.90132,4.51802 6.44663,6.13701 l 0.68752,0.47757 v 0.52917 c -6.32007,2.50163 -12.81822,3.10197 -19.16312,0.36115 -6.10445,-2.79955 -10.46738,-7.35727 -12.89193,-13.62154 -0.4048,-1.11522 -0.71632,-2.25081 -0.97342,-3.40836 0.65212,0.5924 1.0149,1.1729 1.42023,1.9513 2.66526,4.51882 7.35821,7.4766 12.31961,8.84687 3.48332,0.72787 6.95897,0.5551 10.33897,-0.5125 0.7586,-0.23151 0.7586,-0.23151 1.55128,-0.23151 -0.93193,-1.65073 -0.93193,-1.65073 -1.42445,-2.44316 -4.07043,-6.56458 -5.48114,-14.00254 -3.75204,-21.55904 0.99429,-3.84625 2.62643,-7.589573 5.17649,-10.658213 z"
       fill="#5fa9b9"
       id="path313"
       style="fill:#5fa9b9;fill-opacity:1;stroke-width:0.264406" />
    <path
       d="m 83.310178,91.721818 v 0.264579 l -0.79479,0.0786 c -6.22732,0.66357 -11.63263,2.82866 -15.80716,7.63772 -3.92642,5.142973 -5.19366,11.191353 -4.45884,17.561193 0.4513,2.96175 1.48998,5.65944 2.82908,8.32459 l 0.41907,0.84852 c 1.19801,2.23281 2.81957,3.99203 4.60126,5.76606 l 0.55329,0.55404 c 3.4199,3.19246 7.85972,4.94665 12.39387,5.79596 l 0.71949,0.15081 c 1.20488,0.15822 2.39364,0.14155 3.60723,0.13018 l 0.74222,-0.003 c 0.60033,-0.003 1.20065,-0.007 1.80098,-0.013 -0.82096,0.82206 -1.80151,0.79666 -2.92289,0.95912 l -0.7187,0.10451 c -8.15486,1.10543 -15.92474,-0.9017 -22.51696,-5.82613 -5.12258,-3.97457 -8.28089,-8.43968 -9.69187,-14.8373 -0.73191,-6.68734 1.05242,-12.9839 5.1971,-18.29594 3.13929,-3.881173 7.4174,-6.638133 12.15738,-8.141763 l 0.52105,-0.16748 c 3.72879,-1.140619 7.50645,-1.002769 11.36919,-0.890849 z"
       fill="#347eae"
       id="path317"
       style="stroke-width:0.264406" />
    <path
       d="m 83.062598,81.849689 c 0.31443,0.0016 0.62887,0.0026 0.95281,0.0045 5.07846,0.06959 9.20965,1.266822 13.64683,3.781419 1.51932,0.56885 2.950902,-0.21511 4.391472,-0.75988 6.08067,-2.179637 12.64435,-2.483117 18.77681,-0.29766 l 0.52634,0.17595 c 4.21972,1.42134 7.70198,3.84043 10.83545,6.9678 l 0.76468,0.681299 0.55646,0.64162 c -0.0801,1.00356 -0.66479,1.7354 -1.21465,2.55058 -0.19025,0.28311 -0.37996,0.56621 -0.57549,0.85804 l -0.60429,0.89086 a 730.72621,731.7097 0 0 1 -2.09744,3.108853 c -0.96179,-0.44265 -1.38878,-0.891123 -2.015,-1.752603 -2.87374,-3.69014 -7.35108,-6.15791 -11.95102,-6.89583 -2.99449,-0.297929 -6.29522,-0.341319 -9.15707,0.68421 -0.6574,0.0265 -0.6574,0.0265 -1.31083,-0.54875 a 43.615538,43.674241 0 0 1 -0.68435,-0.829999 c -1.02045,-1.18586 -2.06547,-2.28785 -3.25344,-3.30729 l -0.765732,-0.66675 c -0.72029,-0.44132 -0.72029,-0.44132 -1.36104,-0.45349 -0.91581,0.37279 -1.68604,0.90487 -2.48031,1.48404 l -0.47851,0.34052 a 180.50372,180.74666 0 0 0 -1.15653,0.83344 c -0.85689,-0.49847 -1.64218,-1.03373 -2.42773,-1.63698 -4.67735,-3.26786 -10.43038,-4.625177 -16.06821,-4.713017 2.20181,-1.191151 4.7059,-1.153051 7.15053,-1.14088 z"
       fill="#65b3b7"
       id="path319"
       style="stroke-width:0.264406" />
    <path
       d="m 135.62728,97.013487 h 0.52845 a 25.059356,25.093083 0 0 1 0.97447,1.5875 c 0.21323,0.36565 0.42726,0.73078 0.64181,1.09564 l 0.36305,0.617533 c 0.75807,1.27053 1.54573,2.52281 2.33075,3.77693 l 0.51128,0.81836 c 0.81937,1.30942 1.64192,2.61673 2.4708,3.92033 l 0.4439,0.69956 c 0.2748,0.43233 0.55039,0.86413 0.82677,1.2954 l 0.36939,0.58076 0.32183,0.50297 c 0.25815,0.45085 0.25815,0.45085 0.52238,1.2446 -2.16165,-0.14473 -4.2324,-0.57441 -6.34147,-1.05833 l -0.0114,0.70061 c -0.3073,7.93327 -4.18087,14.4026 -9.86415,19.73845 -5.03671,4.32541 -11.40777,6.33016 -17.93445,6.3336 l -1.03419,0.01 -0.98478,0.001 -0.90022,0.003 c -0.71396,-0.0643 -0.71396,-0.0643 -1.24241,-0.59346 h 1.84959 v -0.52917 l 0.75754,-0.0693 c 7.77305,-0.79296 13.91926,-4.09337 19.05954,-9.98485 0.71526,-0.92921 1.29392,-1.87907 1.84959,-2.91041 0.17677,-0.30745 0.35407,-0.61489 0.53163,-0.92181 3.00665,-5.30146 4.01679,-10.99476 3.98614,-17.04102 l -0.001,-0.85831 c -0.001,-0.89217 -0.005,-1.78408 -0.008,-2.67626 l -0.003,-1.83039 c -0.003,-1.484573 -0.007,-2.968893 -0.0129,-4.453463 z"
       fill="#3381b0"
       id="path321"
       style="stroke-width:0.264406" />
    <path
       d="m 64.021558,118.44474 c 0.65212,0.5924 1.0149,1.1729 1.42023,1.9513 2.66526,4.51882 7.35821,7.4766 12.31961,8.84687 3.48332,0.72787 6.95897,0.5551 10.33897,-0.5125 0.7586,-0.23151 0.7586,-0.23151 1.55128,-0.23151 l 0.26423,-0.52916 0.34164,0.47651 c 1.68789,2.24049 3.73433,4.15264 6.10499,5.6605 l 0.68752,0.47757 v 0.52917 c -6.32007,2.50163 -12.81822,3.10197 -19.16312,0.36115 -6.10445,-2.79955 -10.46738,-7.35727 -12.89193,-13.62154 -0.4048,-1.11522 -0.71632,-2.25081 -0.97342,-3.40836 z"
       fill="#68b3b7"
       id="path325"
       style="stroke-width:0.264406" />
    <path
       style="opacity:0.56;fill:#5fa9b9;fill-opacity:1;stroke:none;stroke-width:0;stroke-dasharray:none"
       d="m 98.985068,125.7479 c -0.66514,-0.36672 -1.25197,-0.83036 -1.98139,-1.56545 l -0.7322,-0.7379 0.41065,-0.0197 0.41066,-0.0197 0.36298,-0.44926 c 0.86622,-1.0721 2.05793,-2.98178 2.655792,-4.25582 1.16916,-2.49148 1.91456,-5.0831 2.2671,-7.88234 0.13777,-1.09386 0.118,-4.81201 -0.031,-5.83034 -0.24825,-1.6967 -0.84638,-4.17143 -1.45748,-6.030233 -0.43822,-1.33295 -1.213122,-2.51486 -1.737982,-2.65087 -0.18915,-0.049 -0.17245,-0.0665 0.66072,-0.69282 1.080612,-0.8123 1.819192,-1.27448 2.953702,-1.84836 0.89179,-0.45111 1.98476,-0.91197 2.32347,-0.97971 0.15094,-0.0302 0.24914,0.039 0.69011,0.48628 0.70466,0.71471 1.29433,1.50113 2.42889,3.23919 1.75168,2.68341 2.17728,3.817573 2.3599,6.288583 0.0829,1.12161 0.0455,3.77789 -0.0726,5.15308 -0.1783,2.07648 -0.56814,3.6758 -1.41256,5.7949 -1.7953,4.50555 -4.85633,8.5084 -8.93677,11.68655 -0.359642,0.28011 -0.689472,0.50876 -0.732962,0.50809 -0.0435,-7.9e-4 -0.23655,-0.088 -0.42904,-0.19416 z"
       id="path1156" />
  </g>
</svg>
