<?xml version="1.0" encoding="UTF-8"?>
<!-- Generator: visioncortex VTracer 0.6.12 -->
<svg version="1.1" xmlns="http://www.w3.org/2000/svg" width="1399" height="752">
    <path
        d="M0 0 C461.67 0 923.34 0 1399 0 C1399 248.16 1399 496.32 1399 752 C937.33 752 475.66 752 0 752 C0 503.84 0 255.68 0 0 Z "
        fill="#F6F8FA" transform="translate(0,0)" />
    <path
        d="M0 0 C1.19 0.006 2.38 0.011 3.606 0.017 C22.827 0.28 38.461 4.805 55.254 14.309 C61.005 16.46 66.422 13.497 71.875 11.438 C94.888 3.199 119.729 2.052 142.938 10.312 C143.595 10.532 144.252 10.751 144.929 10.977 C160.901 16.348 174.08 25.491 185.938 37.312 C186.415 37.737 186.415 37.737 188.832 39.887 C189.527 40.687 190.222 41.488 190.938 42.312 C190.635 46.105 188.422 48.871 186.34 51.953 C185.621 53.023 184.903 54.093 184.162 55.195 C183.4 56.318 182.637 57.44 181.875 58.562 C181.108 59.7 180.342 60.838 179.576 61.977 C177.702 64.759 175.822 67.537 173.938 70.312 C170.299 68.639 168.682 66.944 166.312 63.688 C155.436 49.741 138.491 40.414 121.082 37.625 C98.872 35.418 78.738 40.078 60.93 53.867 C59.573 54.984 58.249 56.143 56.938 57.312 C57.191 57.907 57.445 58.501 57.707 59.113 C64.713 75.986 64.713 75.986 62.938 81.312 C62.479 80.493 62.02 79.673 61.547 78.828 C61.24 78.289 61.24 78.289 59.688 75.562 C59.084 74.495 58.481 73.428 57.859 72.328 C56.101 69.569 54.345 67.507 51.938 65.312 C46.61 67.088 44.541 72.574 41.938 77.312 C33.308 95.969 32.219 115.821 39.116 135.178 C42.599 144.23 47.213 152.018 53.688 159.25 C54.147 159.765 54.607 160.28 55.081 160.81 C56.422 162.215 56.422 162.215 58.938 164.312 C66.313 164.312 71.812 157.501 77 152.625 C91.634 137.489 103.126 114.6 103.035 93.262 C103.034 92.603 103.032 91.944 103.031 91.265 C103.025 89.177 103.013 87.088 103 85 C102.995 83.577 102.99 82.155 102.986 80.732 C102.975 77.259 102.958 73.786 102.938 70.312 C104.938 71.312 104.938 71.312 105.938 73.613 C106.268 74.607 106.597 75.601 106.938 76.625 C107.268 77.591 107.597 78.556 107.938 79.551 C110.632 89.687 111.328 99.6 111.312 110.062 C111.312 110.722 111.311 111.382 111.31 112.062 C111.236 128.909 107.233 142.258 99.938 157.312 C99.695 157.824 99.695 157.824 98.469 160.41 C95.365 166.541 91.536 171.351 86.793 176.316 C84.938 178.312 84.938 178.312 83.938 180.312 C106.036 186.015 127.045 184.716 147.008 173.191 C163.39 162.685 174.341 148.01 179.938 129.312 C180.619 125.843 181.154 122.404 181.578 118.895 C181.938 116.313 181.938 116.313 182.938 114.312 C182.287 114.439 181.636 114.565 180.966 114.696 C178.02 115.263 175.073 115.819 172.125 116.375 C171.101 116.574 170.077 116.773 169.021 116.979 C168.039 117.162 167.056 117.346 166.043 117.535 C165.137 117.708 164.231 117.881 163.298 118.059 C160.938 118.312 160.938 118.312 157.938 117.312 C178.868 86.434 178.868 86.434 187.121 74.422 C188.982 71.713 190.828 68.994 192.66 66.266 C193.08 65.646 193.499 65.027 193.931 64.388 C195.035 62.758 196.133 61.123 197.23 59.488 C197.794 58.77 198.357 58.052 198.938 57.312 C199.598 57.312 200.257 57.312 200.938 57.312 C202.262 59.286 203.451 61.25 204.625 63.312 C205.433 64.694 206.243 66.074 207.055 67.453 C207.281 67.838 207.281 67.838 208.429 69.787 C211.298 74.59 214.279 79.323 217.25 84.062 C217.888 85.083 218.527 86.104 219.185 87.155 C222.285 92.105 225.399 97.046 228.535 101.973 C229.09 102.845 229.644 103.717 230.216 104.616 C231.256 106.25 232.299 107.883 233.345 109.513 C233.806 110.237 234.267 110.961 234.742 111.707 C234.943 112.021 234.943 112.021 235.96 113.609 C236.938 115.313 236.938 115.313 237.938 118.312 C229.757 117.766 221.92 116.141 213.938 114.312 C213.923 115.186 213.909 116.06 213.895 116.961 C212.732 146.944 198.072 171.395 176.562 191.562 C153.261 211.547 124.678 216.919 94.938 215.312 C82.614 213.899 70.389 209.477 59.688 203.312 C57.065 201.959 55.619 201.237 52.672 201.562 C50.346 202.343 48.168 203.293 45.938 204.312 C23.602 212.145 -0.252 211.533 -21.75 201.688 C-44.51 190.672 -60.445 173.018 -69.062 149.312 C-70.217 145.673 -71.234 142.039 -72.062 138.312 C-69.595 140.552 -68.222 142.746 -66.688 145.688 C-56.6 162.766 -38.84 173.945 -20.062 179.125 C-6.879 181.875 6.275 181.222 19.066 177.188 C21.938 176.312 21.938 176.312 24.938 176.312 C21.411 170.073 21.411 170.073 19.547 167.078 C4.141 142.267 -1.197 114.155 5.347 85.595 C8.988 71.526 14.958 57.815 23.938 46.312 C8.859 38.81 -9.575 37.547 -25.625 42.922 C-48.545 52.194 -64.445 66.442 -74.375 89.312 C-82.681 112.238 -80.946 137.655 -70.831 159.69 C-69.928 161.575 -69.002 163.446 -68.062 165.312 C-67.801 165.842 -67.801 165.842 -66.477 168.52 C-61.942 176.958 -55.805 183.608 -49.062 190.312 C-48.372 191.003 -47.681 191.694 -46.969 192.406 C-34.025 204.472 -17.223 211.102 -0.062 214.312 C0.836 214.501 1.734 214.689 2.66 214.883 C7.22 215.481 11.72 215.418 16.312 215.375 C16.776 215.373 16.776 215.373 19.121 215.361 C21.393 215.35 23.665 215.333 25.938 215.312 C22.83 218.42 19.119 218.324 14.875 218.938 C13.978 219.068 13.08 219.198 12.156 219.333 C-18.708 223.511 -48.114 215.925 -73.062 197.312 C-96.379 179.245 -113.158 153.994 -117.062 124.312 C-117.352 119.704 -117.397 115.116 -117.375 110.5 C-117.369 109.259 -117.364 108.018 -117.358 106.739 C-117.244 98.186 -116.756 90.484 -114.062 82.312 C-113.864 81.691 -113.665 81.069 -113.46 80.428 C-104.761 53.659 -87.36 32.926 -62.25 19.848 C-42.235 10.276 -18.117 7.513 3.309 13.988 C13.871 17.843 23.335 22.091 32.484 28.711 C34.734 30.18 36.315 30.884 38.938 31.312 C39.928 29.993 40.918 28.673 41.938 27.312 C41.363 27.047 40.788 26.781 40.195 26.508 C37.843 25.263 35.919 23.811 33.812 22.188 C16.11 9.783 -5.697 4.645 -27.062 4.312 C-18.729 -0.19 -9.252 -0.046 0 0 Z "
        fill="#5897BE" transform="translate(344.0625,265.6875)" />
    <path
        d="M0 0 C0.66 0 1.32 0 2 0 C3.325 1.973 4.513 3.938 5.688 6 C6.495 7.382 7.305 8.762 8.117 10.141 C8.571 10.911 9.024 11.681 9.491 12.475 C12.36 17.277 15.341 22.01 18.312 26.75 C18.632 27.26 18.632 27.26 20.247 29.843 C23.348 34.792 26.461 39.733 29.598 44.66 C30.152 45.533 30.707 46.405 31.278 47.304 C32.318 48.938 33.361 50.57 34.407 52.2 C34.869 52.924 35.33 53.648 35.805 54.395 C36.207 55.022 36.609 55.65 37.023 56.296 C38 58 38 58 39 61 C30.819 60.453 22.982 58.829 15 57 C14.986 57.874 14.972 58.748 14.957 59.648 C13.794 89.632 -0.866 114.083 -22.375 134.25 C-45.677 154.235 -74.26 159.606 -104 158 C-109.885 157.325 -115.387 155.855 -121 154 C-122.118 153.638 -123.235 153.276 -124.387 152.902 C-137.144 148.363 -148.853 141.982 -159 133 C-159.444 132.616 -159.444 132.616 -161.691 130.672 C-165.848 127.017 -169.732 123.499 -173 119 C-173 118.34 -173 117.68 -173 117 C-172.25 116.66 -171.5 116.319 -170.727 115.969 C-162.552 112.098 -154.134 107.7 -149 100 C-144.708 101.651 -142.121 104.738 -139 108 C-121.514 99.887 -109.062 81.331 -102 64 C-98.635 54.801 -95.86 45.811 -95.902 35.949 C-95.904 35.29 -95.905 34.632 -95.907 33.953 C-95.912 31.864 -95.925 29.776 -95.938 27.688 C-95.943 26.265 -95.947 24.842 -95.951 23.42 C-95.962 19.947 -95.979 16.473 -96 13 C-94 14 -94 14 -93 16.301 C-92.67 17.295 -92.34 18.289 -92 19.312 C-91.835 19.795 -91.835 19.795 -91 22.238 C-88.305 32.374 -87.61 42.287 -87.625 52.75 C-87.626 53.41 -87.627 54.07 -87.628 54.75 C-87.701 71.596 -91.705 84.945 -99 100 C-99.485 101.022 -99.969 102.044 -100.469 103.098 C-103.573 109.228 -107.402 114.039 -112.145 119.004 C-114 121 -114 121 -115 123 C-92.901 128.703 -71.893 127.404 -51.93 115.879 C-35.547 105.372 -24.596 90.698 -19 72 C-18.319 68.531 -17.784 65.091 -17.359 61.582 C-17 59 -17 59 -16 57 C-16.651 57.126 -17.301 57.253 -17.972 57.383 C-20.917 57.951 -23.865 58.507 -26.812 59.062 C-27.837 59.262 -28.861 59.461 -29.916 59.666 C-30.407 59.758 -30.407 59.758 -32.895 60.223 C-33.801 60.395 -34.706 60.568 -35.64 60.746 C-38 61 -38 61 -41 60 C-20.07 29.122 -20.07 29.122 -11.816 17.109 C-9.955 14.4 -8.11 11.682 -6.277 8.953 C-5.858 8.334 -5.438 7.714 -5.006 7.076 C-3.902 5.445 -2.804 3.811 -1.707 2.176 C-1.144 1.458 -0.58 0.74 0 0 Z "
        fill="#529CB5" transform="translate(543,323)" />
    <path
        d="M0 0 C9.331 3.525 17.799 9.119 25 16 C25 16.66 25 17.32 25 18 C25.66 18 26.32 18 27 18 C27.268 17.361 27.536 16.721 27.812 16.062 C29 14 29 14 32 13 C40.109 29.672 40.109 29.672 38 36 C37.541 35.18 37.082 34.36 36.609 33.516 C35.996 32.438 35.382 31.36 34.75 30.25 C34.147 29.183 33.543 28.115 32.922 27.016 C31.163 24.256 29.407 22.194 27 20 C21.673 21.776 19.604 27.261 17 32 C8.384 50.628 7.276 70.494 14.144 89.835 C17.24 97.661 21.661 104.818 26 112 C22.288 117.131 18.204 120.474 12.938 123.875 C12.336 124.268 11.734 124.661 11.115 125.066 C7.778 127.159 4.928 128.54 1 129 C7.643 138.252 15.765 146.076 25.398 152.195 C25.828 152.493 25.828 152.493 28 154 C28 154.66 28 155.32 28 156 C4.081 165.455 -20.512 167.724 -44.525 157.365 C-67.628 146.784 -84.14 129.558 -93.316 105.882 C-94.848 101.667 -96.027 97.375 -97 93 C-94.532 95.239 -93.159 97.433 -91.625 100.375 C-81.538 117.454 -63.777 128.633 -45 133.812 C-31.817 136.563 -18.663 135.91 -5.871 131.875 C-3 131 -3 131 0 131 C-3.527 124.761 -3.527 124.761 -5.391 121.766 C-20.796 96.955 -26.135 68.843 -19.591 40.283 C-15.828 25.746 -9.651 11.598 0 0 Z "
        fill="#5FA9B9" transform="translate(369,311)" />
    <path
        d="M0 0 C4.865 4.382 8.173 9.508 11.688 15 C12.268 15.889 12.849 16.779 13.447 17.695 C19.39 26.901 20.409 33.38 20.375 44.312 C20.374 44.99 20.373 45.667 20.372 46.365 C20.328 56.827 19.696 66.149 16 76 C15.879 76.328 15.879 76.328 15.269 77.987 C7.928 97.5 -5.215 113.666 -22 126 C-33.34 120.946 -40.208 107.895 -44.867 96.988 C-51.812 78.669 -52.578 59.603 -44.75 41.312 C-38.986 29.61 -38.986 29.61 -35 25 C-31 25 -31 25 -29.438 26.32 C-28.963 26.916 -28.489 27.511 -28 28.125 C-27.492 28.758 -26.984 29.391 -26.461 30.043 C-24.527 32.634 -22.732 35.269 -21 38 C-23.129 30.912 -25.297 23.892 -28 17 C-19.94 9.502 -10.549 3.31 0 0 Z "
        fill="#ACD0DB" transform="translate(428,306)" />
    <path
        d="M0 0 C0 0.33 0 0.66 0 1 C-0.496 1.049 -0.496 1.049 -3.008 1.297 C-26.576 3.805 -47.033 11.988 -62.832 30.164 C-77.692 49.602 -82.488 72.462 -79.707 96.537 C-77.999 107.731 -74.068 117.927 -69 128 C-68.738 128.529 -68.738 128.529 -67.414 131.207 C-62.88 139.646 -56.743 146.295 -50 153 C-49.309 153.691 -48.618 154.382 -47.906 155.094 C-34.963 167.16 -18.16 173.79 -1 177 C-0.102 177.188 0.797 177.376 1.723 177.57 C6.283 178.168 10.782 178.105 15.375 178.062 C15.838 178.06 15.838 178.06 18.184 178.049 C20.456 178.037 22.728 178.021 25 178 C21.893 181.107 18.182 181.011 13.938 181.625 C13.04 181.755 12.143 181.886 11.218 182.02 C-19.645 186.198 -49.051 178.612 -74 160 C-93.387 144.978 -105.34 128.102 -110.68 103.922 C-113.45 78.647 -106.697 54.849 -91.011 34.772 C-79.13 20.103 -62.939 9.683 -45 4 C-44.349 3.791 -43.699 3.582 -43.028 3.367 C-28.916 -0.944 -14.619 -0.423 0 0 Z "
        fill="#347EAE" transform="translate(345,303)" />
    <path
        d="M0 0 C1.19 0.006 2.38 0.011 3.606 0.017 C22.827 0.28 38.461 4.805 55.254 14.309 C61.005 16.46 66.422 13.497 71.875 11.438 C94.888 3.199 119.729 2.052 142.938 10.312 C143.595 10.532 144.252 10.751 144.929 10.977 C160.901 16.348 174.08 25.491 185.938 37.312 C186.415 37.737 186.415 37.737 188.832 39.887 C189.527 40.687 190.222 41.488 190.938 42.312 C190.635 46.105 188.422 48.871 186.34 51.953 C185.621 53.023 184.903 54.093 184.162 55.195 C183.4 56.318 182.637 57.44 181.875 58.562 C181.108 59.7 180.342 60.838 179.576 61.977 C177.702 64.759 175.822 67.537 173.938 70.312 C170.299 68.639 168.682 66.944 166.312 63.688 C155.436 49.741 138.491 40.414 121.082 37.625 C109.749 36.499 97.257 36.336 86.426 40.211 C83.938 40.312 83.938 40.312 81.465 38.137 C80.588 37.102 79.726 36.056 78.875 35 C75.013 30.518 71.058 26.353 66.562 22.5 C66.084 22.084 66.084 22.084 63.664 19.98 C60.938 18.312 60.938 18.312 58.512 18.266 C55.046 19.675 52.131 21.687 49.125 23.875 C48.528 24.3 47.93 24.724 47.314 25.162 C45.85 26.205 44.393 27.258 42.938 28.312 C39.695 26.428 36.723 24.405 33.75 22.125 C16.047 9.774 -5.726 4.644 -27.062 4.312 C-18.729 -0.19 -9.252 -0.046 0 0 Z "
        fill="#65B3B7" transform="translate(344.0625,265.6875)" />
    <path
        d="M0 0 C0.66 0 1.32 0 2 0 C3.325 1.973 4.513 3.938 5.688 6 C6.495 7.382 7.305 8.762 8.117 10.141 C8.571 10.911 9.024 11.681 9.491 12.475 C12.36 17.277 15.341 22.01 18.312 26.75 C18.632 27.26 18.632 27.26 20.247 29.843 C23.348 34.792 26.461 39.733 29.598 44.66 C30.152 45.533 30.707 46.405 31.278 47.304 C32.318 48.938 33.361 50.57 34.407 52.2 C34.869 52.924 35.33 53.648 35.805 54.395 C36.207 55.022 36.609 55.65 37.023 56.296 C38 58 38 58 39 61 C30.819 60.453 22.982 58.829 15 57 C14.986 57.874 14.972 58.748 14.957 59.648 C13.794 89.632 -0.866 114.083 -22.375 134.25 C-41.437 150.598 -65.549 158.175 -90.25 158.188 C-91.542 158.2 -92.833 158.212 -94.164 158.225 C-94.779 158.226 -94.779 158.226 -97.891 158.23 C-99.015 158.235 -100.139 158.239 -101.298 158.243 C-104 158 -104 158 -106 156 C-103.69 156 -101.38 156 -99 156 C-99 155.34 -99 154.68 -99 154 C-98.054 153.914 -97.108 153.827 -96.133 153.738 C-66.715 150.741 -43.454 138.267 -24 116 C-21.293 112.488 -19.103 108.898 -17 105 C-16.331 103.838 -15.66 102.676 -14.988 101.516 C-3.609 81.479 0.214 59.961 0.098 37.109 C0.096 36.039 0.095 34.968 0.093 33.865 C0.088 30.493 0.075 27.122 0.062 23.75 C0.057 21.444 0.053 19.138 0.049 16.832 C0.038 11.221 0.021 5.611 0 0 Z "
        fill="#3381B0" transform="translate(543,323)" />
    <path
        d="M0 0 C5.546 3.033 7.462 14.225 9.273 20.133 C15.743 43.047 12.46 68.291 1 89.094 C-1.678 93.64 -4.501 98.134 -8 102.094 C-8.99 102.094 -9.98 102.094 -11 102.094 C-23.604 86.652 -28.687 66.648 -27 47.094 C-25.326 34.347 -20.528 20.957 -12 11.094 C-8 11.094 -8 11.094 -6.438 12.414 C-5.963 13.01 -5.489 13.605 -5 14.219 C-4.492 14.852 -3.984 15.485 -3.461 16.137 C-1.527 18.728 0.268 21.363 2 24.094 C-0.129 17.005 -2.297 9.986 -5 3.094 C-2.623 0.123 -2.623 0.123 0 0 Z "
        fill="#F4F8F9" transform="translate(405,319.90625)" />
    <path
        d="M0 0 C2.468 2.239 3.841 4.433 5.375 7.375 C15.462 24.454 33.223 35.633 52 40.812 C65.183 43.563 78.337 42.91 91.129 38.875 C94 38 94 38 97 38 C97.165 37.67 97.165 37.67 98 36 C98.427 36.594 98.853 37.189 99.293 37.801 C105.681 46.269 113.426 53.496 122.398 59.195 C122.828 59.493 122.828 59.493 125 61 C125 61.66 125 62.32 125 63 C101.081 72.455 76.488 74.724 52.475 64.365 C29.372 53.784 12.86 36.558 3.684 12.882 C2.152 8.667 0.973 4.375 0 0 Z "
        fill="#68B3B7" transform="translate(272,404)" />


</svg>