<svg xmlns="http://www.w3.org/2000/svg" width="1399" height="752">
    <path d="M0 0h1399v752H0V0z" fill=" />
    <path
        d=" M344.063 265.688c1.19.006 2.38.01 3.606.017 19.22.263 34.855 4.788 51.648 14.292 5.75 2.15 11.168-.813
        16.62-2.872C438.95 268.887 463.791 267.74 487 276l1.992.665C504.962 282.037 518.141 291.18 530 303l2.894
        2.575L535 308c-.303 3.793-2.516 6.559-4.597 9.64-.72 1.07-1.438 2.14-2.178 3.243l-2.287 3.367A2765.517 2765.517
        0 01518 336c-3.64-1.673-5.256-3.368-7.626-6.624-10.876-13.947-27.821-23.274-45.23-26.063-22.21-2.207-42.344
        2.453-60.152 16.242A133.518 133.518 0 00401 323c.253.595.507 1.189.769 1.8 7.006 16.874 7.006 16.874 5.23
        22.2l-1.39-2.484-1.86-3.266-1.829-3.234c-1.758-2.76-3.514-4.821-5.92-7.016-5.328 1.776-7.397 7.262-10 12-8.63
        18.657-9.72 38.509-2.822 57.866 3.483 9.052 8.097 16.84 14.572 24.072l1.393 1.56c1.34 1.405 1.34 1.405 3.857
        3.502 7.375 0 12.874-6.811 18.062-11.687 14.634-15.136 26.126-38.025
        26.035-59.363l-.005-1.997c-.006-2.088-.018-4.177-.03-6.265l-.015-4.268c-.01-3.473-.028-6.946-.048-10.42 2 1 2 1
        3 3.3l1 3.013 1 2.926c2.694 10.136 3.39 20.049 3.374 30.51 0 .66 0 1.32-.002 2-.074 16.847-4.077 30.197-11.372
        45.25l-1.469 3.098c-3.104 6.131-6.933 10.941-11.676 15.906C429 444 429 444 428 446c22.098 5.703 43.107 4.404
        63.07-7.12 16.382-10.506 27.333-25.181 32.93-43.88a142.566 142.566 0 001.64-10.417C526 382 526 382 527
        380l-1.972.384c-2.946.568-5.893 1.124-8.84 1.68l-3.105.604-2.978.556-2.745.523C505 384 505 384 502
        383c20.93-30.878 20.93-30.878 29.183-42.89a934.672 934.672 0 005.54-8.156l1.27-1.878c1.104-1.63 2.202-3.265
        3.3-4.9L543 323h2a95.11 95.11 0 013.687 6c.808 1.382 1.618 2.762 2.43 4.141l1.374 2.334c2.87 4.803 5.85 9.536
        8.821 14.275l1.935 3.093c3.1 4.95 6.214 9.891 9.35 14.818l1.681 2.643c1.04 1.634 2.083 3.267 3.13 4.897l1.397
        2.194 1.218 1.902C581 381 581 381 582 384c-8.18-.546-16.018-2.17-24-4-.014.874-.029 1.748-.042 2.65-1.163
        29.983-15.823 54.434-37.333 74.6C497.322 477.235 468.74 482.606 439
        481c-12.324-1.413-24.55-5.835-35.25-12-2.623-1.353-4.07-2.075-7.016-1.75-2.327.781-4.505 1.731-6.735 2.75-22.336
        7.833-46.19 7.221-67.688-2.624C299.553 456.36 283.618 438.705 275 415c-1.155-3.64-2.172-7.274-3-11 2.467 2.24
        3.84 4.434 5.374 7.375 10.088 17.078 27.848 28.257 46.626 33.438 13.183 2.75 26.337 2.097 39.128-1.938C366 442
        366 442 369 442c-3.527-6.24-3.527-6.24-5.39-9.234-15.407-24.812-20.745-52.924-14.2-81.484 3.64-14.069 9.61-27.78
        18.59-39.283-15.079-7.502-33.513-8.765-49.563-3.39-22.92 9.272-38.82 23.52-48.75 46.39-8.306 22.926-6.57 48.343
        3.544 70.378a314.8 314.8 0 002.77 5.622c.26.53.26.53 1.585 3.208C282.12 442.645 288.256 449.296 295 456l2.093
        2.094C310.038 470.16 326.84 476.79 344 480c.898.19 1.796.377 2.722.571 4.56.599 9.06.536
        13.652.493l2.81-.014c2.271-.011 4.543-.028 6.816-.05-3.108 3.108-6.819 3.012-11.063 3.626l-2.719.395c-30.864
        4.178-60.27-3.407-85.218-22.02-23.317-18.067-40.096-43.319-44-73-.29-4.608-.335-9.196-.313-13.812l.017-3.761c.114-8.553.602-16.255
        3.296-24.427l.602-1.884c8.7-26.77 26.1-47.502 51.21-60.58 20.015-9.572 44.133-12.335 65.56-5.86 10.561 3.855
        20.025 8.103 29.174 14.723 2.25 1.469 3.831 2.173 6.454
        2.6l3-4-1.743-.804c-2.352-1.244-4.276-2.696-6.383-4.32C360.173 275.472 338.365 270.334 317 270c8.333-4.502
        17.81-4.358 27.062-4.312z" fill="#5897BE" />
    <path
        d="M543 323h2a94.84 94.84 0 013.688 6c.807 1.382 1.617 2.762 2.429 4.141l1.374 2.334c2.869 4.802 5.85 9.535 8.821 14.275l1.935 3.093c3.101 4.949 6.214 9.89 9.351 14.817l1.68 2.644c1.04 1.634 2.083 3.266 3.129 4.896l1.398 2.195 1.218 1.901C581 381 581 381 582 384c-8.181-.547-16.018-2.171-24-4l-.043 2.648c-1.163 29.984-15.823 54.435-37.332 74.602C497.323 477.235 468.74 482.606 439 481c-5.885-.675-11.387-2.145-17-4a4542.63 4542.63 0 01-3.387-1.098C405.856 471.363 394.147 464.982 384 456l-2.691-2.328c-4.157-3.655-8.041-7.173-11.309-11.672v-2l2.273-1.031C380.448 435.098 388.866 430.7 394 423c4.292 1.651 6.879 4.738 10 8 17.486-8.113 29.938-26.669 37-44 3.365-9.199 6.14-18.189 6.098-28.051l-.005-1.996c-.005-2.089-.018-4.177-.031-6.265l-.013-4.268c-.011-3.473-.028-6.947-.049-10.42 2 1 2 1 3 3.301l1 3.011 1 2.926c2.695 10.136 3.39 20.049 3.375 30.512l-.003 2c-.073 16.846-4.077 30.195-11.372 45.25l-1.469 3.098c-3.104 6.13-6.933 10.941-11.676 15.906C429 444 429 444 428 446c22.099 5.703 43.107 4.404 63.07-7.121C507.453 428.372 518.404 413.698 524 395a143.14 143.14 0 001.641-10.418C526 382 526 382 527 380l-1.972.383a2053.14 2053.14 0 01-8.84 1.679l-3.104.604-2.979.557-2.745.523C505 384 505 384 502 383c20.93-30.878 20.93-30.878 29.184-42.891a941.884 941.884 0 005.539-8.156l1.271-1.877c1.104-1.631 2.202-3.265 3.299-4.9L543 323z"
        fill="#529CB5" />
    <path
        d="M369 311c9.331 3.525 17.799 9.119 25 16v2h2l.812-1.938C398 325 398 325 401 324c8.109 16.672 8.109 16.672 6 23l-1.391-2.484-1.859-3.266-1.828-3.234c-1.759-2.76-3.515-4.822-5.922-7.016-5.327 1.776-7.396 7.261-10 12-8.616 18.628-9.724 38.494-2.856 57.835 3.096 7.826 7.517 14.983 11.856 22.165-3.712 5.131-7.796 8.474-13.062 11.875l-1.823 1.191c-3.337 2.093-6.187 3.474-10.115 3.934 6.643 9.252 14.765 17.076 24.398 23.195L397 465v2c-23.919 9.455-48.512 11.724-72.525 1.365-23.103-10.581-39.615-27.807-48.791-51.483-1.532-4.215-2.711-8.507-3.684-12.882 2.468 2.239 3.841 4.433 5.375 7.375 10.087 17.079 27.848 28.258 46.625 33.437 13.183 2.751 26.337 2.098 39.129-1.937C366 442 366 442 369 442c-3.527-6.239-3.527-6.239-5.391-9.234-15.405-24.811-20.744-52.923-14.2-81.483 3.763-14.537 9.94-28.685 19.591-40.283z"
        fill="#5FA9B9" />
    <path
        d="M428 306c4.865 4.382 8.173 9.508 11.688 15l1.759 2.695c5.943 9.206 6.962 15.685 6.928 26.617l-.003 2.053c-.044 10.462-.676 19.784-4.372 29.635l-.731 1.987C435.928 403.5 422.785 419.666 406 432c-11.34-5.054-18.208-18.105-22.867-29.012-6.945-18.319-7.711-37.385.117-55.676 5.764-11.702 5.764-11.702 9.75-16.312 4 0 4 0 5.562 1.32l1.438 1.805 1.539 1.918A126.365 126.365 0 01407 344c-2.129-7.088-4.297-14.108-7-21 8.06-7.498 17.451-13.69 28-17z"
        fill="#ACD0DB" />
    <path
        d="M345 303v1l-3.008.297c-23.568 2.508-44.025 10.691-59.824 28.867-14.86 19.438-19.656 42.298-16.875 66.373 1.708 11.194 5.639 21.39 10.707 31.463l1.586 3.207C282.12 442.646 288.257 449.295 295 456l2.094 2.094C310.037 470.16 326.84 476.79 344 480l2.723.57c4.56.598 9.059.535 13.652.492l2.809-.013c2.272-.012 4.544-.028 6.816-.049-3.107 3.107-6.818 3.011-11.062 3.625l-2.72.395c-30.863 4.178-60.269-3.408-85.218-22.02-19.387-15.022-31.34-31.898-36.68-56.078-2.77-25.275 3.983-49.073 19.669-69.15C265.87 323.103 282.061 312.683 300 307l1.972-.633c14.112-4.311 28.409-3.79 43.028-3.367z"
        fill="#347EAE" />
    <path
        d="M344.063 265.688c1.19.006 2.38.01 3.606.017 19.22.263 34.855 4.788 51.648 14.292 5.75 2.15 11.168-.813 16.62-2.872C438.95 268.887 463.791 267.74 487 276l1.992.665C504.962 282.037 518.141 291.18 530 303l2.894 2.575L535 308c-.303 3.793-2.516 6.559-4.597 9.64-.72 1.07-1.438 2.14-2.178 3.243l-2.287 3.367A2765.517 2765.517 0 01518 336c-3.64-1.673-5.256-3.368-7.626-6.624-10.876-13.947-27.821-23.274-45.23-26.063-11.333-1.126-23.825-1.29-34.656 2.586-2.488.1-2.488.1-4.961-2.074a165.068 165.068 0 01-2.59-3.137c-3.862-4.482-7.817-8.647-12.313-12.5l-2.898-2.52C405 284 405 284 402.575 283.954c-3.466 1.409-6.381 3.42-9.387 5.609l-1.811 1.287A683.137 683.137 0 00387 294c-3.243-1.884-6.215-3.907-9.188-6.187C360.11 275.462 338.337 270.332 317 270c8.333-4.502 17.81-4.358 27.062-4.312z"
        fill="#65B3B7" />
    <path
        d="M543 323h2a94.84 94.84 0 013.688 6c.807 1.382 1.617 2.762 2.429 4.141l1.374 2.334c2.869 4.802 5.85 9.535 8.821 14.275l1.935 3.093c3.101 4.949 6.214 9.89 9.351 14.817l1.68 2.644c1.04 1.634 2.083 3.266 3.129 4.896l1.398 2.195 1.218 1.901C581 381 581 381 582 384c-8.181-.547-16.018-2.171-24-4l-.043 2.648c-1.163 29.984-15.823 54.435-37.332 74.602-19.062 16.348-43.174 23.925-67.875 23.938l-3.914.037-3.727.005-3.407.013C439 481 439 481 437 479h7v-2l2.867-.262C476.285 473.741 499.546 461.267 519 439c2.707-3.512 4.897-7.102 7-11 .669-1.162 1.34-2.324 2.012-3.484 11.379-20.037 15.202-41.555 15.086-64.407l-.005-3.244c-.005-3.372-.018-6.743-.031-10.115l-.013-6.918c-.011-5.611-.028-11.221-.049-16.832z"
        fill="#3381B0" />
    <path
        d="M405 319.906c5.546 3.033 7.462 14.225 9.273 20.133 6.47 22.914 3.187 48.158-8.273 68.961-2.678 4.546-5.501 9.04-9 13h-3c-12.604-15.442-17.687-35.446-16-55 1.674-12.747 6.472-26.137 15-36 4 0 4 0 5.562 1.32l1.438 1.805 1.539 1.918A126.365 126.365 0 01407 344c-2.129-7.089-4.297-14.108-7-21 2.377-2.97 2.377-2.97 5-3.094z"
        fill="#F4F8F9" />
    <path
        d="M272 404c2.468 2.239 3.841 4.433 5.375 7.375 10.087 17.079 27.848 28.258 46.625 33.437 13.183 2.751 26.337 2.098 39.129-1.937C366 442 366 442 369 442l1-2 1.293 1.801c6.388 8.468 14.133 15.695 23.105 21.394L397 465v2c-23.919 9.455-48.512 11.724-72.525 1.365-23.103-10.581-39.615-27.807-48.791-51.483-1.532-4.215-2.711-8.507-3.684-12.882z"
        fill="#68B3B7" />
</svg>